<?xml version="1.0" encoding="UTF-8" standalone="no"?>
<svg
   xmlns:dc="http://purl.org/dc/elements/1.1/"
   xmlns:cc="http://creativecommons.org/ns#"
   xmlns:rdf="http://www.w3.org/1999/02/22-rdf-syntax-ns#"
   xmlns:svg="http://www.w3.org/2000/svg"
   xmlns="http://www.w3.org/2000/svg"
   xmlns:sodipodi="http://sodipodi.sourceforge.net/DTD/sodipodi-0.dtd"
   xmlns:inkscape="http://www.inkscape.org/namespaces/inkscape"
   width="333.61942mm"
   height="173.86298mm"
   viewBox="0 0 333.61942 173.86298"
   version="1.1"
   id="svg8"
   inkscape:version="1.0.2 (e86c870879, 2021-01-15)"
   sodipodi:docname="helsinki.svg">
  <defs
     id="defs2" />
  <sodipodi:namedview
     id="base"
     pagecolor="#ffffff"
     bordercolor="#666666"
     borderopacity="1.0"
     inkscape:pageopacity="0.0"
     inkscape:pageshadow="2"
     inkscape:zoom="0.49497475"
     inkscape:cx="771.32288"
     inkscape:cy="365.17547"
     inkscape:document-units="mm"
     inkscape:current-layer="layer1"
     inkscape:document-rotation="0"
     showgrid="false"
     fit-margin-top="0"
     fit-margin-left="0"
     fit-margin-right="0"
     fit-margin-bottom="0"
     inkscape:window-width="1533"
     inkscape:window-height="974"
     inkscape:window-x="26"
     inkscape:window-y="23"
     inkscape:window-maximized="0" />
  <metadata
     id="metadata5">
    <rdf:RDF>
      <cc:Work
         rdf:about="">
        <dc:format>image/svg+xml</dc:format>
        <dc:type
           rdf:resource="http://purl.org/dc/dcmitype/StillImage" />
        <dc:title></dc:title>
      </cc:Work>
    </rdf:RDF>
  </metadata>
  <g
     inkscape:label="Layer 1"
     inkscape:groupmode="layer"
     id="layer1"
     transform="translate(17.750854,39.13818)">
    <path
       id="path24"
       style="opacity:1;fill:#ffffff;stroke:none;stroke-width:0.999999px;stroke-linecap:butt;stroke-linejoin:miter;stroke-opacity:1"
       d="m 540.65039,-147.92383 c -2.96629,0 -2.85547,2.0737 -2.85547,2.99219 0,0.9185 1.43164,1.25098 1.43164,1.25098 v 4.72168 c 0,0 -3.72998,1.04188 -3.72998,3.98849 0,2.94661 4.25537,3.91288 4.25537,3.91288 v 13.85644 c 0,0 -6.15625,3.30322 -6.15625,8.61328 0,5.31005 2.09961,6.44922 2.09961,6.44922 0,0 3.88283,3.837748 3.88281,6.417967 0,2.580219 -0.97656,4.912109 -0.97656,4.912109 l -4.27539,7.173828 -3.39453,2.19336 0.76367,1.388672 v 11.751953 c 0,0 -2.45562,2.589236 -4.7832,6.001953 -2.32758,3.412717 -1.39063,7.710937 -1.39063,7.710937 0,0 -19.18637,4.044426 -39.89648,25.761719 -20.71011,21.7172924 -21.64844,53.613281 -21.64844,53.613281 0,0 -4.97656,1.901681 -4.97656,4.042969 0,2.141292 2.39844,2.064453 2.39844,2.064453 v 20.080078 l -3.00586,0.447266 -6.33789,3.226563 1.60351,4.257812 5.51563,1.238281 2.14648,3.650391 v 13.310547 h -3.7207 l 1.32031,8.601562 1.83985,3.1875 v 86.294919 l -2.67969,6.03711 -5.85156,-3.48047 -6.06641,-7.05078 v -2.41211 c 0,0 1.88476,-1.41057 1.88477,-4.57812 0,-3.16755 -2.78321,-4.02149 -2.78321,-4.02149 v -12.00781 c 0,0 2.35547,0.17746 2.35547,-1.9082 0,-2.08564 -2.57617,-1.96485 -2.57617,-1.96485 0,0 -0.26367,-4.05684 -0.26367,-5.06445 0,-1.0076 -0.40857,-1.66601 -1.0918,-1.66601 -0.68345,0 -0.61719,1.23242 -0.61719,1.23242 v 5.83398 c 0,0 -2.44492,-0.62367 -2.39843,1.10938 0.0467,1.733 2.36523,1.64258 2.36523,1.64257 v 12.34766 c 0,0 -2.50977,2.09877 -2.50977,4.91406 0,2.81529 2.07813,3.69922 2.07813,3.69922 v 2.4668 l -5.03906,6.91797 c 0,0 -2.7577,-1.82743 -12.75977,9.38281 -10.00222,11.21024 -9.68555,27.19531 -9.68555,27.19531 l -1.68945,2.94532 -8.38672,0.84765 2.54883,4.41602 v 13.82617 h -10.25391 l -3.55859,-2.11523 v -20.2168 l -7.97461,-1.38281 c 0,0 0.48878,-14.14488 -5.67578,-25.28711 -6.16456,-11.14223 -18.78321,-16.15226 -18.81836,-16.33008 -1.39882,-5.36817 -6.33594,-6.06445 -6.33594,-6.06446 v -3.59765 c 0,0 2.40039,-0.82951 2.40039,-3.60742 0,-2.77792 -3.28515,-4.79883 -3.28515,-4.79883 v -11.17188 c 0,0 2.22656,-0.704 2.22656,-2.97265 0,-2.26866 -2.83984,-1.95508 -2.83984,-1.95508 v -6.4668 h -2.20704 v 6.02735 c 0,0 -1.79687,1.38497 -1.79687,2.99218 0,1.60724 1.82422,1.86329 1.82422,1.86328 v 11.47266 c 0,0 -2.30078,2.93694 -2.30078,5.71289 0,2.77595 2.17773,3.79102 2.17773,3.79102 v 2.14453 c 0,0 -1.00819,0.54073 -3.30273,2.73047 -2.29455,2.18973 -1.63672,4.01172 -1.63672,4.01172 0,0 -7.26034,3.68398 -16.82227,13.24023 -9.56192,9.55625 -8.70898,26.32617 -8.70898,26.32617 0,0 -9.43806,2.14934 -9.4082,3.46875 0.0298,1.31942 1.43359,2.77149 1.43359,2.77149 v 20.28125 l -0.88672,0.51367 0.56836,2.12109 v 8.4336 c 0,0 -6.50132,4.73806 -6.4707,7.14062 0.0306,2.40257 1.95703,3.79297 1.95703,3.79297 l 4.05273,2.83398 v 3.31446 l -1.04101,1.95508 1.16796,4.66211 -1.63281,0.82031 2.42969,7.69726 -1.48047,1.19141 v 39.65039 l -40.47265,13.23828 h -7.09766 v -4.41797 l -4.53125,-6.38476 v -2.36524 c 0,0 3.06641,-2.27385 3.06641,-4.41601 0,-2.14216 -3.90821,-4.05469 -3.90821,-4.05469 v -8.52539 c 0,0 1.36719,-0.13392 1.36719,-1.60156 0,-1.46763 -0.58088,-4.61719 -2.03125,-4.61719 -1.45036,0 -1.71598,3.42919 -1.73828,4.54492 -0.0223,1.11572 1.33789,1.58203 1.33789,1.58203 v 8.5918 c 0,0 -2.98242,2.00753 -2.98242,4.70703 0,2.69949 2.80468,3.67969 2.80468,3.67969 v 2.36133 l -3.22265,5.58398 h -1.27735 v 5.33984 h -7.47265 v -4.06054 c 0,0 -3.878,-5.87481 -4.16211,-7.64258 -0.28411,-1.76776 -2.19243,-3.49911 -2.39649,-6.3086 -0.20407,-2.80944 0.63196,-7.59116 0.52149,-9.40624 -0.11049,-1.81512 -0.42451,-4.47985 -0.55078,-6.43555 -0.12627,-1.95569 -1.2948,-2.096 -1.65821,-4.71485 -0.36339,-2.61885 -2.05154,-2.79076 -3.05664,-3.01171 -1.00509,-0.22098 -2.39734,0.85513 -2.55468,2.96484 -0.15734,2.1097 1.70117,2.79297 1.70117,2.79297 0,0 -1.43142,1.30845 -1.8418,3.2168 -0.41037,1.9083 -0.79151,9.80329 -0.79101,14.34374 4.9e-4,4.54052 1.64062,11.49415 1.64062,11.49415 l -3.52344,2.0332 0.9375,1.62305 h -1.11718 v 3.57812 h -10.01368 l -15.04687,16.60742 c 0,0 0.20199,-2.58333 0.17969,-4.8125 -0.0223,-2.22918 -0.0918,-3.48633 -0.0918,-3.48633 l -0.83789,-3.06445 v -9.11133 l -3.08008,0.15821 -0.94922,-1.60547 V 296.0625 h -1.23047 v 31.44336 l -1.09375,1.23047 -3.46484,-2.58008 -8.20508,2.24219 -0.63086,3.66015 -7.88476,0.4043 1.58203,8.41797 -0.19727,12.34961 -3.0918,0.27734 v 16.33008 l -1.32226,1.38672 -0.64453,4.42187 -6.25586,0.94727 -15.14649,0.25586 -1.39062,-2.52539 -2.83398,-0.43555 -3.96876,3.22266 -4.36718,-1.04883 -4.18164,1.65625 -4.9375,-0.70898 V 337.0293 l 0.98047,-3.6836 -8.00782,-1.39258 -2.27148,-2.90429 -0.38281,-6.73633 -1.42578,-2.18359 v -15.44336 l 4.52929,-2.78516 -3.81055,-1.45312 4.64258,-2.23047 -1.69531,-0.5586 0.33203,-6.13867 -2.83203,-0.89258 2.07617,-2.74609 -2.8789,-8.14844 2.83398,-1.42773 -3.29492,-0.0879 v -16.07227 c 0,0 4.39014,-0.42487 6.28711,-1.80078 1.89697,-1.3759 3.77279,-4.3751 3.48437,-7.87695 -0.28844,-3.50186 -1.66992,-3.81641 -1.66992,-3.81641 0,0 1.07255,-1.1128 0.96094,-2.19922 -0.11161,-1.08643 -3.0957,-4.0332 -3.0957,-4.0332 0,0 0.84465,-1.0731 1.68554,-1.98828 0.84089,-0.91518 2.53813,-4.87224 2.11524,-9.69141 -0.42289,-4.81916 -3.63031,1.16263 -6.30469,2.8125 -2.67439,1.64987 -4.00391,-2.16406 -4.00391,-2.16406 v -23.23438 h -1.64843 l -1.96485,-4.5625 1.7207,-3.23437 -4.9746,-0.98242 v -36.31641 l 0.57617,-5.7207 h -4.08789 v 40.62109 l -3.35938,3.21485 3.84961,5.42773 -1.99219,1.47851 h -4.64453 v 23.22266 c 0,0 -0.85372,-0.003 -1.607419,0.48047 -0.753699,0.48375 -1.898438,2.14844 -1.898438,2.14844 l -2.166015,0.88867 -1.06836,-4.99609 -0.447266,7.26953 4.396485,-0.58985 3.244143,1.65235 v 2.46484 c 0,0 -1.916082,4.01484 -2.056643,5.20898 -0.140557,1.19421 1.603513,3.16211 1.603513,3.16211 l 0.0605,3.52735 c 0,0 -0.80147,1.24464 -1.113282,1.86719 -0.311815,0.62256 -0.398437,2.6289 -0.398437,2.6289 l -2.677735,-1.03125 -0.138672,-4.54101 -1.90625,-0.0488 -1.412109,5.13672 1.203125,2.9414 2.675781,0.22657 3.433599,2.54101 -0.004,11.25 -1.523439,1.50391 -0.964843,-2.36524 -3.574219,-0.25 -0.31836,4.05664 -3.966797,2.40821 8.25586,-0.0859 c 0,0 0.413643,1.2431 1.201172,1.86914 0.787526,0.62607 1.697266,0.62891 1.697266,0.62891 l 0.13477,1.41406 c 0,0 -1.32534,0.37347 -1.95313,1.44141 -0.627768,1.0679 -0.123047,2.36328 -0.123047,2.36328 l -2.226562,0.58398 -2.123047,-2.76758 0.423828,-3.09765 -2.277344,0.91601 -2.412109,4.24024 8.251953,7.14062 v 1.25 l -4.054688,-2.85547 -1.630859,3.25196 -2.144531,-0.25782 -1.003906,2.42969 10.875002,6.5 v 28.26758 h -5.246096 v 3.1289 l 0.908203,1.51563 v 4.25195 l -2.130859,1.09961 2.375,1.26758 v 24.44531 c -10e-7,0 -4.057358,2.85855 -5.492188,4.95703 -1.434833,2.09849 -1.673828,6.18555 -1.673828,6.18555 h -8 l -6.722656,1.06641 -1.984375,-3.81446 -4.22461,4.22657 h -2.855469 v -3.35742 h -4.068359 v 2.02148 H 60.84375 v -2.10352 l -1.794922,0.11719 -1.671875,-1.51953 c 0,0 9.214563,-6.76618 1.757813,-12.16797 -7.456755,-5.40178 -12.583182,7.2274 -10.507813,10.48633 2.075373,3.25891 4.222656,3.16992 4.222656,3.16992 v 1.47852 h -9.591797 v -1.02735 h -0.734374 v 0.99414 h -2.822266 v -1.09961 h -0.644531 v 1.11329 h -9.1875 v -1.03907 h -0.6875 v 1.06641 h -0.646485 v 6.50195 l -2.136718,0.14063 -0.19336,-6.75586 -12.052734,0.0566 -0.878906,3.91015 -3.5839849,2.52344 -3.3222656,-2.84961 -5.3652344,-0.29687 -2.4042969,1.40039 -3.5898437,-3.21094 -0.7519531,2.83789 -1.7050782,-2.01953 -0.6308593,2.72266 c 0,0 -12.2946439,0.005 -15.0429689,-0.20899 -2.748326,-0.21407 -6.789677,0.68475 -8.283203,0.8125 -1.493527,0.12775 -4.032551,-4.03402 -5.603516,-4.34961 -1.570967,-0.31566 -5.175781,4.48828 -5.175781,4.48828 0,0 -0.889706,-3.40028 -1.953125,-4.57617 -1.063423,-1.17577 -6.302734,0.20703 -6.302734,0.20703 l -0.183594,-8.27148 -6.921875,-0.10742 -0.695313,7.5664 -8.847656,0.0801 0.08203,130.0574 H 1193.75 l 0.084,-149.60232 -0.9219,-11.58984 -2.0898,-4.77735 -7.5918,0.082 -0.2481,-15.73828 -6.5156,-0.082 -4.2168,1.16797 0.1797,-6.25781 c 0,0 0.087,-2.5293 -1.8516,-2.5293 l -7.625,0.0488 c -3.031,0 -3.7519,1.80273 -3.7519,1.80273 l -0.7559,4.33594 -5.3867,-0.53125 -15.6543,0.3125 c 0,-5.0528 -1.5859,-4.58398 -1.5859,-4.58398 h -4.7911 l -0.1015,-3.59571 -2.4531,-0.14648 v 3.74219 c -4.7541,-0.34545 -4.5723,2.38133 -4.5723,4.63671 l -8.6758,-0.0312 -0.045,-5.16993 -2.2481,-1.14453 -3.9882,4.92774 -2.2364,0.0254 -0.6953,-4.20703 -5.1484,0.0195 -0.334,3.89453 -2.5566,0.0156 -2.2032,-1.52734 -2.4043,2.89453 -32.332,0.22656 -14.4258,-15.23437 c -2.5213,1.68608 -4.8033,1.24479 -7.1699,1.55664 l -6.4023,5.97656 h -10.8575 v -1.7207 -24.49805 c 0,-24.2633 2.2554,-28.27815 -7.2636,-41.96094 -6.6641,-9.57903 -16.96321,-10.379 -25.2891,-9.11523 -7.70585,1.25184 -22.62598,9.43429 -30.03516,16.41211 -4.39686,4.14088 -12.19276,12.17906 -20.02734,15.59375 -7.83462,3.41471 -21.50586,3.53711 -21.50586,3.53711 l -0.64062,-40.32227 -1.3711,0.19141 0.50586,40.46094 c 0,0 -9.73298,0.66434 -18.34766,1.20703 -8.61463,0.54268 -20.04882,11.02539 -20.04882,11.02539 v -66.25 c 0,0 4.41406,-4.95578 4.41406,-7.21094 0,-2.00975 -5.22544,-2.26411 -9.02539,-2.29883 l -0.0879,-17.54687 -3.5957,4.76953 -0.0801,8.74414 c -0.0249,-1.02557 2.78711,-2.07617 2.78711,-2.07617 l -0.10938,6.05078 0.4707,0.0508 c -0.24691,-9.5e-4 -0.55201,-0.0117 -0.77929,-0.0117 -3.73675,0 -7.13867,1.42433 -7.13867,2.98438 0,1.56006 3.84375,7.71484 3.84375,7.71484 v 104.99023 c 0,0 -5.08302,-0.0477 -5.29883,0.16797 0,-6.40125 -0.69324,-4.79154 -3.44727,-8.04297 l -2.03711,-0.55468 -0.25985,-5.74647 0.14549,-6.09396 -0.16884,-8.72793 1.44939,-3.47994 0.29475,-5.47709 -0.40643,-4.9381 -0.7088,-0.0502 -0.82581,4.87303 c 0,0 -0.32041,-1.91041 -0.32041,-3.15659 0,-1.24615 -1.2188,-2.50603 -2.69767,-2.40223 -1.36114,0.0955 -2.48103,1.23239 -2.52525,3.01392 -0.0443,1.78152 0.7539,2.60352 0.7539,2.60352 0,0 -2.93327,3.98912 -2.88867,6.03711 0.0446,2.04798 1.06836,4.86418 1.06836,6.28124 0,1.41706 -1.04962,5.83592 -0.89203,7.44215 0,0 1.23432,1.93604 1.0204,2.47141 -0.21396,0.53536 -0.30415,5.3716 -0.30415,5.3716 l -4.91797,4.91797 v 4.10156 H 832.9668 c 0,0 -0.29552,-2.65265 -1.46094,-4.26172 -1.16542,-1.6091 -3.60742,0.0957 -3.60742,0.0957 V 305.8223 c 5.41137,0 9.60351,-3.19727 9.60351,-3.19727 v -5.09961 c 0,-2.56488 -2.47265,-1.81836 -2.47265,-1.81836 h -8.02344 c 0,0 -0.14551,-61.15437 0,-61.23828 2.50129,0 2.39844,-2.96094 2.39844,-2.96094 v -8.6875 c 0,-2.58432 -4.62696,-2.13281 -4.62696,-2.13281 0,0 -0.22656,-6.94264 -0.22656,-7.79102 0,-0.84836 -0.36995,-6.69726 -0.87305,-6.69726 -0.50309,0 -0.92968,5.71875 -0.92968,5.71875 l -0.0801,8.76953 h -2.19531 c -2.9466,0 -2.85743,2.13281 -2.85743,2.13281 0,0 0.14128,5.74596 -0.0371,8.6875 -0.1785,2.94165 1.66407,2.96094 1.66407,2.96094 l 0.0273,7.67773 1.04297,1.00782 v 52.55273 h -2.83203 c -4.00067,0 -3.9707,2.3418 -3.9707,2.3418 0,0 -0.084,1.07412 -0.084,3.02929 0,1.95522 2.8086,2.58594 2.8086,2.58594 -10e-6,0 -3.21291,0.7596 -1.2793,1.29883 l 5.3125,0.71484 v 18.35157 h -3.71289 l -1.04688,1.81054 -4.27148,-1.14453 -0.97852,1.69531 c 0,0 -1.32555,-5.20696 -1.77539,-3.07617 v 5.04688 h -5.44922 L 767.95502,314.168 v -36.65039 l 2.01367,-3.70899 -2.5918,-1.69531 1.28711,-4.59375 -1.11523,-0.83398 0.40625,-5.44727 6.60547,-4.33008 -0.008,-1.60351 -6.8164,-7.09961 0.13476,-7.57422 -1.42773,-1.7793 -0.18945,-21.16211 c 0,0 1.02603,-0.43778 1.11523,-1.67383 0.0893,-1.23601 -7.1533,-1.79115 -7.54883,-2.2871 -0.89809,-13.4389 -2.45402,-18.21088 -7.66992,-26.84961 -5.2159,-8.63875 -17.08726,-13.41298 -17.06836,-13.48438 0,-2.18331 -5.10742,-6.80664 -5.10742,-6.80664 v -2.05078 c 0,0 1.93697,-1.64453 1.82812,-4.61328 -0.109,-2.96875 -2.7832,-4.6875 -2.7832,-4.6875 v -12.0293 c 0,0 1.57617,-0.50893 1.57617,-1.48828 0,-0.97936 -1.80273,-1.42383 -1.80273,-1.42383 v -6.21094 c 0,0 0.0962,-1.13086 -0.98242,-1.13086 -1.07849,1e-5 -0.96485,1.06055 -0.96485,1.06055 v 6.125 c 0,0 -1.55728,0.13177 -1.64648,1.09961 -0.0893,0.96784 1.33789,1.75391 1.33789,1.75391 v 12.23828 c 0,0 -2.23554,2.00551 -2.375,4.32031 -0.1395,2.3148 1.65039,4.55274 1.65039,4.55274 l 0.0918,2.40429 c 0,0 -2.53317,1.66791 -3.69141,3.13867 -1.15835,1.47078 -1.29297,3.88086 -1.29297,3.88086 0,0 -6.51306,3.1686 -12.89453,9.50196 -6.3815,6.33335 -10.98014,19.60093 -10.93555,21.4707 0.0447,1.86977 1.68164,4.94531 1.68164,4.94531 l -1.13867,4.2461 -8.86328,2.375 2.51758,2.51757 v 17.125 l -4.36914,1.16993 -3.16211,-3.16016 v -21.48242 c 0,0 0.89067,-1.11077 0.79883,-2.125 -0.0917,-1.01423 -7.80664,-2.27735 -7.80664,-2.27735 0,0 -0.30169,-15.49239 -6.24024,-26.33398 -5.93854,-10.84159 -18.37304,-15.41602 -18.37304,-15.41602 l -5.57618,-7.72656 c 0,0 -0.30469,-1.87213 -0.36328,-2.00781 0.83112,-0.17857 3.35077,-0.76625 3.12891,-3.66211 -0.22182,-2.89586 -3.12695,-5.20508 -3.12695,-5.20508 l -0.0684,-11.78125 c 0,0 1.38637,-0.0884 1.5625,-1.29101 0.17612,-1.20257 -1.33789,-2.76563 -1.33789,-2.76563 0,0 -9.1e-4,-6.20603 -1.54493,-6.20703 -1.54386,-10e-4 -1.64062,5.84375 -1.64062,5.84375 0,0 -1.6945,1.51173 -2.05469,2.43945 -0.3603,0.92774 2.1543,1.91602 2.1543,1.91602 l 0.16797,11.69531 c 0,0 -3.29288,3.036 -3.11524,5.57227 0.17753,2.53627 2.05274,3.78906 2.05274,3.78906 l -0.043,1.5918 -3.82813,7.54296 c 0,1e-5 -1.92,0.71514 -6.28906,3.42579 -4.36906,2.71066 -7.02539,4.60546 -7.02539,4.60547 l -0.98242,-88.810552 3.38867,-7.271484 -3.16602,-0.183594 -0.84765,-15.617188 c 0,0 9.31836,-6.11398 9.31836,-7.802734 0,-1.688757 -2.54136,-1.431361 -5.8418,-2.226562 -3.30043,-0.795202 -4.03711,-2.753907 -4.03711,-2.753907 V 30.033203 c 0,0 1.51367,-1.507743 1.51367,-3.037109 0,-1.529367 -4.98828,-3.837891 -4.98828,-3.837891 0,0 -2.63427,-34.021205 -19.76562,-52.667969 -17.13135,-18.646757 -42.79297,-25.158203 -42.79297,-25.158203 v -1.230469 c 0,10e-7 1.25195,-0.888705 1.25195,-2.472656 0,-1.583951 -4.71107,-6.114779 -6.68164,-10.064453 -1.97057,-3.94967 -1.38477,-9.751953 -1.38476,-9.751953 0,0 0.95703,-1.179688 0.95703,-2.761719 0,-1.582031 -4.66105,-4.775217 -5.99024,-6.96289 -1.32918,-2.187674 -2.30664,-4.44657 -2.30664,-8.998047 0,-4.551484 6.74805,-5.794004 6.74805,-11.242184 0,-5.44817 -6.94336,-9.10547 -6.94336,-9.10547 v -13.7998 c 0,0 3.82031,-1.31599 3.82031,-4.14942 0,-3.25875 -4.18945,-3.75195 -4.18945,-3.75195 v -4.72168 c 0,0 1.15771,-0.13782 1.15771,-1.2913 0,-0.75926 0.19158,-2.95187 -2.7749,-2.95187 z m 458.44922,394.4043 c 6.83549,0.0438 13.37849,2.23645 17.53129,14.04101 2.3737,7.98549 1.3144,55.76563 1.3144,55.76563 v 1.82617 h -1.4785 l -5e-4,-1.26367 -1.5831,0.0332 -0.018,1.37891 h -5.4961 l -0.028,-1.98201 -1.0972,0.0347 v 2.4336 h -1.5312 l -0.8027,-3 h -8.4727 v 3.55664 h -4.68555 l -0.029,-2.42321 -1.96421,-0.0475 -0.0302,2.23243 -3.55079,0.95117 -2.00485,-0.73102 0.0283,-1.24359 -2.0341,-0.0229 -0.0108,1.20455 h -6.66602 l -1.68554,-1.68555 -1.64063,1.64063 v 10.58789 H 917.5918 v -46.87891 c 0,0 12.9322,0.96429 23.84319,-3.74763 8.11096,-3.50272 15.24195,-10.86855 22.30457,-16.95135 6.75925,-5.82151 17.55064,-14.41234 28.50458,-15.31274 2.26564,-0.18623 4.57698,-0.4111 6.85547,-0.39648 z m -87.56641,35.89648 c 2.82153,0.0273 4.75391,0.21289 4.75391,0.21289 v 47.12696 h -10.95508 l -0.91211,-1.47852 -2.52344,-0.28516 -1.98828,0.98438 -0.50195,-0.74609 -1.69922,0.91211 -1.10156,-0.50586 -0.4375,1.07812 h -17.60352 v -26.66797 c 0,0 8.60338,-13.99185 16.29102,-17.86328 4.80477,-2.41964 11.97518,-2.81314 16.67773,-2.76758 z"
       transform="scale(0.26458333)"
       sodipodi:nodetypes="ssccsccscscccccscscsccccccccccccccccsccscsscccccscccccccccccccscscsccsccccsccsccscscscccccsccccccccccccccsccsssccscccccccssssssscsscccccccscccccccccccccccccccccccccccccccccccccccccccccsscscssscccccccccccccccccccccccsccscccccccccccccccsccscccccccccccccccccccccscccccccccccccsscccccccccccccccccccccccccccccssccccccccccccccccccccccccccccccccccccccccccccccsscssccccsccscccccccsscccccccccccccssscsscsccccscccsccccscssccscsccccscsccccccccccccccccccccccccscsccccccsccsccsccsccscssccccccccscscccsccscscsccscccscccccssccscsccsscssssccsccssscccccccccccccccccccccccccccccccssssccccccccccccsssc" />
    <path
       style="fill:none;stroke:#ffffff;stroke-width:0.264583px;stroke-linecap:butt;stroke-linejoin:miter;stroke-opacity:1"
       d="m 262.14125,64.02756 v -3.314488 h 12.685 v 23.739691"
       id="path41" />
    <path
       style="fill:none;stroke:#ffffff;stroke-width:0.264583px;stroke-linecap:butt;stroke-linejoin:miter;stroke-opacity:1"
       d="m 270.26801,81.501484 h 4.57342"
       id="path43"
       sodipodi:nodetypes="cc" />
    <path
       style="fill:none;stroke:#ffffff;stroke-width:0.264583px;stroke-linecap:butt;stroke-linejoin:miter;stroke-opacity:1"
       d="m 270.4988,84.637966 2.0488,-2.990794 2.24015,3.502668"
       id="path45"
       sodipodi:nodetypes="ccc" />
    <path
       style="fill:none;stroke:#ffffff;stroke-width:0.264583px;stroke-linecap:butt;stroke-linejoin:miter;stroke-opacity:1"
       d="m 270.34241,77.853128 h 4.49163"
       id="path43-3"
       sodipodi:nodetypes="cc" />
    <path
       style="fill:none;stroke:#ffffff;stroke-width:0.264583px;stroke-linecap:butt;stroke-linejoin:miter;stroke-opacity:1"
       d="m 270.26801,81.501484 2.35399,-3.502668 2.21943,3.502668"
       id="path45-2"
       sodipodi:nodetypes="ccc" />
    <path
       style="fill:none;stroke:#ffffff;stroke-width:0.264583px;stroke-linecap:butt;stroke-linejoin:miter;stroke-opacity:1"
       d="m 270.41681,74.204772 h 4.41897"
       id="path43-3-2"
       sodipodi:nodetypes="cc" />
    <path
       style="fill:none;stroke:#ffffff;stroke-width:0.264583px;stroke-linecap:butt;stroke-linejoin:miter;stroke-opacity:1"
       d="m 270.34241,77.853128 2.35399,-3.502668 2.13764,3.502668"
       id="path45-2-5"
       sodipodi:nodetypes="ccc" />
    <path
       style="fill:none;stroke:#ffffff;stroke-width:0.264583px;stroke-linecap:butt;stroke-linejoin:miter;stroke-opacity:1"
       d="m 270.21996,70.556416 h 4.59737"
       id="path43-3-0"
       sodipodi:nodetypes="cc" />
    <path
       style="fill:none;stroke:#ffffff;stroke-width:0.264583px;stroke-linecap:butt;stroke-linejoin:miter;stroke-opacity:1"
       d="m 270.07294,74.204772 2.35399,-3.502668 2.40885,3.502668"
       id="path45-2-7"
       sodipodi:nodetypes="ccc" />
    <path
       style="fill:none;stroke:#ffffff;stroke-width:0.264583px;stroke-linecap:butt;stroke-linejoin:miter;stroke-opacity:1"
       d="m 268.80402,67.040063 h 6.06412"
       id="path43-3-22"
       sodipodi:nodetypes="cc" />
    <path
       style="fill:none;stroke:#ffffff;stroke-width:0.264583px;stroke-linecap:butt;stroke-linejoin:miter;stroke-opacity:1"
       d="m 270.21996,70.556416 2.33363,-3.370665 2.28942,3.345152"
       id="path45-2-9"
       sodipodi:nodetypes="ccc" />
    <path
       style="fill:none;stroke:#ffffff;stroke-width:0.264583px;stroke-linecap:butt;stroke-linejoin:miter;stroke-opacity:1"
       d="M 270.21996,70.556415 V 60.726952"
       id="path119" />
    <path
       style="fill:none;stroke:#ffffff;stroke-width:0.264583px;stroke-linecap:butt;stroke-linejoin:miter;stroke-opacity:1"
       d="M 267.19508,65.143816 V 60.667833"
       id="path121" />
    <path
       style="fill:none;stroke:#ffffff;stroke-width:0.264583px;stroke-linecap:butt;stroke-linejoin:miter;stroke-opacity:1"
       d="M 264.38522,63.991346 V 60.718141"
       id="path123" />
    <path
       style="fill:none;stroke:#ffffff;stroke-width:0.264583px;stroke-linecap:butt;stroke-linejoin:miter;stroke-opacity:1"
       d="m 262.16498,63.379939 2.213,-1.760545"
       id="path125" />
    <path
       style="fill:none;stroke:#ffffff;stroke-width:0.264583px;stroke-linecap:butt;stroke-linejoin:miter;stroke-opacity:1"
       d="m 264.43367,63.621794 2.8137,-1.969023"
       id="path125-0"
       sodipodi:nodetypes="cc" />
    <path
       style="fill:none;stroke:#ffffff;stroke-width:0.264583px;stroke-linecap:butt;stroke-linejoin:miter;stroke-opacity:1"
       d="m 267.64466,65.401165 2.55428,-2.063605"
       id="path147"
       sodipodi:nodetypes="cc" />
    <path
       style="fill:none;stroke:#ffffff;stroke-width:0.264583px;stroke-linecap:butt;stroke-linejoin:miter;stroke-opacity:1"
       d="m 274.88471,65.265117 h -7.64134"
       id="path149"
       sodipodi:nodetypes="cc" />
    <path
       style="fill:none;stroke:#ffffff;stroke-width:0.264583px;stroke-linecap:butt;stroke-linejoin:miter;stroke-opacity:1"
       d="m 270.2331,65.282865 2.21992,-1.568577 2.21424,1.550829"
       id="path151"
       sodipodi:nodetypes="ccc" />
    <path
       style="fill:none;stroke:#ffffff;stroke-width:0.264583px;stroke-linecap:butt;stroke-linejoin:miter;stroke-opacity:1"
       d="m 270.22372,67.080867 2.31388,-1.725278 2.33053,1.684474"
       id="path153"
       sodipodi:nodetypes="ccc" />
    <path
       style="fill:none;stroke:#ffffff;stroke-width:0.264583px;stroke-linecap:butt;stroke-linejoin:miter;stroke-opacity:1"
       d="m 270.19894,63.33756 2.1883,-2.592469 2.38816,2.755239"
       id="path155"
       sodipodi:nodetypes="ccc" />
    <path
       style="fill:none;stroke:#ffffff;stroke-width:0.264583px;stroke-linecap:butt;stroke-linejoin:miter;stroke-opacity:1"
       d="m 267.24737,61.652771 2.95157,1.684789"
       id="path157"
       sodipodi:nodetypes="cc" />
    <path
       style="fill:none;stroke:#ffffff;stroke-width:0.264583px;stroke-linecap:butt;stroke-linejoin:miter;stroke-opacity:1"
       d="m 270.34905,65.375718 -3.11822,-1.75954 -1.63482,1.01692"
       id="path159" />
    <path
       style="fill:none;stroke:#ffffff;stroke-width:0.529167;stroke-linecap:butt;stroke-linejoin:miter;stroke-opacity:1"
       d="M 287.14319,86.496079 V 69.82847 c 0,0 0.0456,-2.496386 2.23924,-2.496386 2.19369,0 1.99361,4.716433 1.99361,4.716433 v 9.719972 5.966909"
       id="path166" />
    <path
       style="fill:#ffffff;stroke:none;stroke-width:0.264583px;stroke-linecap:butt;stroke-linejoin:miter;stroke-opacity:1"
       d="m 285.75738,62.654722 c 0,0.825851 0.96112,0.737449 0.96112,0.737449 h 6.9808 c 0,0 0.44844,0.04042 0.44844,-0.750922 0,-0.791342 -0.31274,-0.690988 -0.62444,-0.690988 -0.31174,0 -6.95828,0.09985 -7.32163,0.09985 -0.36336,0 -0.44429,0.173485 -0.44429,0.604616 z"
       id="path168" />
    <path
       style="fill:#ffffff;stroke:none;stroke-width:0.264583px;stroke-linecap:butt;stroke-linejoin:miter;stroke-opacity:1"
       d="m 285.67258,60.581619 c 0,0.79734 0.2168,0.774131 0.61269,0.774131 0.39587,0 7.42866,0 7.42866,0 0,0 0.4427,0.111254 0.4427,-0.766789 0,-0.878044 -0.23151,-0.600745 -0.57917,-0.600745 -0.34767,0 -6.90854,0.03973 -7.26787,0.03973 -0.35936,0 -0.63701,0.115903 -0.63701,0.553675 z"
       id="path170" />
    <path
       style="fill:none;stroke:#ffffff;stroke-width:0.264583px;stroke-linecap:butt;stroke-linejoin:miter;stroke-opacity:1"
       d="m 289.19932,83.070325 2.07076,1.678507"
       id="path172"
       sodipodi:nodetypes="cc" />
    <path
       style="fill:none;stroke:#ffffff;stroke-width:0.264583px;stroke-linecap:butt;stroke-linejoin:miter;stroke-opacity:1"
       d="m 289.28621,86.145128 -0.27091,-28.179029 0.85008,-0.705845 0.009,-13.252974 0.71242,-0.04448 0.25183,13.508582 0.36846,2.374164 v 10.732733"
       id="path174"
       sodipodi:nodetypes="cccccccc" />
    <path
       style="fill:none;stroke:#ffffff;stroke-width:0.264583px;stroke-linecap:butt;stroke-linejoin:miter;stroke-opacity:1"
       d="m 289.15341,84.748832 h 2.11667"
       id="path176"
       sodipodi:nodetypes="cc" />
    <path
       style="fill:none;stroke:#ffffff;stroke-width:0.264583px;stroke-linecap:butt;stroke-linejoin:miter;stroke-opacity:1"
       d="m 289.24523,81.391818 2.07076,1.678507"
       id="path172-6"
       sodipodi:nodetypes="cc" />
    <path
       style="fill:none;stroke:#ffffff;stroke-width:0.264583px;stroke-linecap:butt;stroke-linejoin:miter;stroke-opacity:1"
       d="m 289.19932,83.070325 h 2.11667"
       id="path176-9"
       sodipodi:nodetypes="cc" />
    <path
       style="fill:none;stroke:#ffffff;stroke-width:0.264583px;stroke-linecap:butt;stroke-linejoin:miter;stroke-opacity:1"
       d="m 289.29114,79.713311 2.07076,1.678507"
       id="path172-2"
       sodipodi:nodetypes="cc" />
    <path
       style="fill:none;stroke:#ffffff;stroke-width:0.264583px;stroke-linecap:butt;stroke-linejoin:miter;stroke-opacity:1"
       d="m 289.24523,81.391818 h 2.11667"
       id="path176-1"
       sodipodi:nodetypes="cc" />
    <path
       style="fill:none;stroke:#ffffff;stroke-width:0.264583px;stroke-linecap:butt;stroke-linejoin:miter;stroke-opacity:1"
       d="m 289.28383,77.493179 2.07076,1.678507"
       id="path172-7"
       sodipodi:nodetypes="cc" />
    <path
       style="fill:none;stroke:#ffffff;stroke-width:0.264583px;stroke-linecap:butt;stroke-linejoin:miter;stroke-opacity:1"
       d="m 289.23792,79.171686 h 2.11667"
       id="path176-7"
       sodipodi:nodetypes="cc" />
    <path
       style="fill:none;stroke:#ffffff;stroke-width:0.264583px;stroke-linecap:butt;stroke-linejoin:miter;stroke-opacity:1"
       d="m 289.16663,75.274968 2.07076,1.678507"
       id="path172-8"
       sodipodi:nodetypes="cc" />
    <path
       style="fill:none;stroke:#ffffff;stroke-width:0.264583px;stroke-linecap:butt;stroke-linejoin:miter;stroke-opacity:1"
       d="m 289.12072,76.953475 h 2.11667"
       id="path176-6"
       sodipodi:nodetypes="cc" />
    <path
       style="fill:none;stroke:#ffffff;stroke-width:0.264583px;stroke-linecap:butt;stroke-linejoin:miter;stroke-opacity:1"
       d="m 289.21254,73.596461 2.07076,1.678507"
       id="path172-5"
       sodipodi:nodetypes="cc" />
    <path
       style="fill:none;stroke:#ffffff;stroke-width:0.264583px;stroke-linecap:butt;stroke-linejoin:miter;stroke-opacity:1"
       d="m 289.16663,75.274968 h 2.11667"
       id="path176-8"
       sodipodi:nodetypes="cc" />
    <path
       style="fill:none;stroke:#ffffff;stroke-width:0.264583px;stroke-linecap:butt;stroke-linejoin:miter;stroke-opacity:1"
       d="m 289.1695,71.316461 2.07076,1.678507"
       id="path172-86"
       sodipodi:nodetypes="cc" />
    <path
       style="fill:none;stroke:#ffffff;stroke-width:0.264583px;stroke-linecap:butt;stroke-linejoin:miter;stroke-opacity:1"
       d="m 289.12359,72.994968 h 2.11667"
       id="path176-0"
       sodipodi:nodetypes="cc" />
    <path
       style="fill:none;stroke:#ffffff;stroke-width:0.264583px;stroke-linecap:butt;stroke-linejoin:miter;stroke-opacity:1"
       d="m 289.19035,69.201972 2.07076,1.678507"
       id="path172-65"
       sodipodi:nodetypes="cc" />
    <path
       style="fill:none;stroke:#ffffff;stroke-width:0.264583px;stroke-linecap:butt;stroke-linejoin:miter;stroke-opacity:1"
       d="m 289.14444,70.880479 h 2.11667"
       id="path176-65"
       sodipodi:nodetypes="cc" />
    <path
       style="fill:none;stroke:#ffffff;stroke-width:0.264583px;stroke-linecap:butt;stroke-linejoin:miter;stroke-opacity:1"
       d="m 289.23626,67.523465 2.07076,1.678507"
       id="path172-3"
       sodipodi:nodetypes="cc" />
    <path
       style="fill:none;stroke:#ffffff;stroke-width:0.264583px;stroke-linecap:butt;stroke-linejoin:miter;stroke-opacity:1"
       d="m 289.19035,69.201972 h 2.11667"
       id="path176-03"
       sodipodi:nodetypes="cc" />
    <path
       style="fill:none;stroke:#ffffff;stroke-width:0.264583px;stroke-linecap:butt;stroke-linejoin:miter;stroke-opacity:1"
       d="m 289.14855,65.516981 2.07076,1.678507"
       id="path172-34"
       sodipodi:nodetypes="cc" />
    <path
       style="fill:none;stroke:#ffffff;stroke-width:0.264583px;stroke-linecap:butt;stroke-linejoin:miter;stroke-opacity:1"
       d="m 289.10264,67.195488 h 2.11667"
       id="path176-87"
       sodipodi:nodetypes="cc" />
    <path
       style="fill:none;stroke:#ffffff;stroke-width:0.264583px;stroke-linecap:butt;stroke-linejoin:miter;stroke-opacity:1"
       d="m 289.01373,58.123836 2.07076,1.678507"
       id="path172-1"
       sodipodi:nodetypes="cc" />
    <path
       style="fill:none;stroke:#ffffff;stroke-width:0.264583px;stroke-linecap:butt;stroke-linejoin:miter;stroke-opacity:1"
       d="m 288.98102,65.166357 h 2.11667"
       id="path176-84"
       sodipodi:nodetypes="cc" />
    <path
       style="fill:none;stroke:#ffffff;stroke-width:0.264583px;stroke-linecap:butt;stroke-linejoin:miter;stroke-opacity:1"
       d="m 289.02693,63.48785 2.07076,1.678507"
       id="path172-30"
       sodipodi:nodetypes="cc" />
    <path
       style="fill:none;stroke:#ffffff;stroke-width:0.264583px;stroke-linecap:butt;stroke-linejoin:miter;stroke-opacity:1"
       d="m 288.98102,65.166357 h 2.11667"
       id="path176-5"
       sodipodi:nodetypes="cc" />
    <path
       style="fill:none;stroke:#ffffff;stroke-width:0.264583px;stroke-linecap:butt;stroke-linejoin:miter;stroke-opacity:1"
       d="m 289.73834,57.365819 h 1.10028"
       id="path322"
       sodipodi:nodetypes="cc" />
    <path
       style="fill:none;stroke:#ffffff;stroke-width:0.264583px;stroke-linecap:butt;stroke-linejoin:miter;stroke-opacity:1"
       d="m 289.88499,55.709918 0.92599,0.927976"
       id="path324"
       sodipodi:nodetypes="cc" />
    <path
       style="fill:none;stroke:#ffffff;stroke-width:0.264583px;stroke-linecap:butt;stroke-linejoin:miter;stroke-opacity:1"
       d="m 289.85898,54.492642 0.96345,0.898679"
       id="path324-3"
       sodipodi:nodetypes="cc" />
    <path
       style="fill:none;stroke:#ffffff;stroke-width:0.264583px;stroke-linecap:butt;stroke-linejoin:miter;stroke-opacity:1"
       d="m 289.90487,53.456594 0.89268,0.944876"
       id="path324-8"
       sodipodi:nodetypes="cc" />
    <path
       style="fill:none;stroke:#ffffff;stroke-width:0.264583px;stroke-linecap:butt;stroke-linejoin:miter;stroke-opacity:1"
       d="m 289.89204,52.324695 0.88417,0.978024"
       id="path324-5"
       sodipodi:nodetypes="cc" />
    <path
       style="fill:none;stroke:#ffffff;stroke-width:0.264583px;stroke-linecap:butt;stroke-linejoin:miter;stroke-opacity:1"
       d="m 289.88012,51.167613 0.85934,0.92057"
       id="path324-7"
       sodipodi:nodetypes="cc" />
    <path
       style="fill:none;stroke:#ffffff;stroke-width:0.264583px;stroke-linecap:butt;stroke-linejoin:miter;stroke-opacity:1"
       d="m 289.87949,49.912974 0.81373,0.969672"
       id="path324-2" />
    <path
       style="fill:none;stroke:#ffffff;stroke-width:0.264583px;stroke-linecap:butt;stroke-linejoin:miter;stroke-opacity:1"
       d="m 289.88123,48.554954 0.81373,0.969673"
       id="path324-4"
       sodipodi:nodetypes="cc" />
    <path
       style="fill:none;stroke:#ffffff;stroke-width:0.264583px;stroke-linecap:butt;stroke-linejoin:miter;stroke-opacity:1"
       d="m 289.84203,47.529399 0.81373,0.969672"
       id="path324-40" />
    <path
       style="fill:none;stroke:#ffffff;stroke-width:0.264583px;stroke-linecap:butt;stroke-linejoin:miter;stroke-opacity:1"
       d="m 289.84895,46.418355 0.81373,0.969672"
       id="path324-21" />
    <path
       style="fill:none;stroke:#ffffff;stroke-width:0.264583px;stroke-linecap:butt;stroke-linejoin:miter;stroke-opacity:1"
       d="m 289.87554,45.310787 0.72163,0.827685"
       id="path324-1"
       sodipodi:nodetypes="cc" />
    <path
       style="fill:none;stroke:#ffffff;stroke-width:0.264583px;stroke-linecap:butt;stroke-linejoin:miter;stroke-opacity:1"
       d="m 289.87438,44.00728 0.71801,0.907618"
       id="path324-0"
       sodipodi:nodetypes="cc" />
    <path
       style="fill:#ffffff;stroke:none;stroke-width:0.264583px;stroke-linecap:butt;stroke-linejoin:miter;stroke-opacity:1"
       d="m 289.11338,59.293053 c 0.65802,0.02506 1.00057,-0.05944 1.00057,0.492191 0,0.551635 0.0167,3.08828 0.0167,3.08828 h -1.11014 z"
       id="path427" />
    <path
       style="fill:none;stroke:#ffffff;stroke-width:0.264583px;stroke-linecap:butt;stroke-linejoin:miter;stroke-opacity:1"
       d="m 264.35469,63.656999 h 10.58676"
       id="path43-3-22-7"
       sodipodi:nodetypes="cc" />
  </g>
</svg>
