<?xml version="1.0" encoding="UTF-8" standalone="no"?>
<svg
   xmlns:dc="http://purl.org/dc/elements/1.1/"
   xmlns:cc="http://creativecommons.org/ns#"
   xmlns:rdf="http://www.w3.org/1999/02/22-rdf-syntax-ns#"
   xmlns:svg="http://www.w3.org/2000/svg"
   xmlns="http://www.w3.org/2000/svg"
   width="32"
   height="32"
   viewBox="0 0 8.4666664 8.4666665"
   version="1.1"
   id="svg8">
  <defs
     id="defs2" />
  <metadata
     id="metadata5">
    <rdf:RDF>
      <cc:Work
         rdf:about="">
        <dc:format>image/svg+xml</dc:format>
        <dc:type
           rdf:resource="http://purl.org/dc/dcmitype/StillImage" />
        <dc:title></dc:title>
      </cc:Work>
    </rdf:RDF>
  </metadata>
  <g
     id="layer1"
     transform="translate(17.750854,39.13818)">
    <path
       id="path24"
       style="opacity:1;fill:#ffffff;stroke:none;stroke-width:0.0219384px;stroke-linecap:butt;stroke-linejoin:miter;stroke-opacity:1"
       d="m -13.550257,-38.922006 c -0.04619,-0.0013 -0.06256,0.02296 -0.06256,0.06582 0,0.02015 0.03128,0.02737 0.03128,0.02737 v 0.103612 c 0,0 -0.08146,0.02268 -0.08146,0.08732 0,0.06464 0.09319,0.08601 0.09319,0.08601 v 0.303669 c 0,0 -0.13489,0.07248 -0.13489,0.188977 0,0.116492 0.04627,0.141407 0.04627,0.141407 0,0 0.08471,0.08416 0.08471,0.140756 0,0.0566 -0.0215,0.108173 -0.0215,0.108173 l -0.09384,0.157048 -0.07428,0.04822 0.01694,0.03063 v 0.2574 c 0,0 -0.05384,0.05742 -0.104915,0.132284 -0.05105,0.07486 -0.03062,0.168777 -0.03062,0.168777 0,0 -0.420815,0.08853 -0.875162,0.564978 -0.454347,0.476441 -0.47505,1.176223 -0.47505,1.176223 0,0 -0.109477,0.04164 -0.109477,0.08862 0,0.04697 0.05278,0.04561 0.05278,0.04561 v 0.440514 l -0.06581,0.0097 -0.138802,0.07103 0.03519,0.09319 0.120555,0.02737 0.04757,0.08015 v 0.291939 h -0.08211 l 0.02932,0.188325 0.0404,0.07038 v 0.8706 l -0.111431,0.03649 -0.0782,-0.04692 v -0.323699 l -0.174641,-0.03063 c 0,0 0.01066,-0.429529 -0.124465,-0.673972 -0.135238,-0.244442 -0.412373,-0.354505 -0.413143,-0.358405 -0.03069,-0.117766 -0.138801,-0.132936 -0.138801,-0.132936 v -0.07885 c 0,0 0.05278,-0.01855 0.05278,-0.0795 0,-0.06095 -0.07234,-0.104916 -0.07234,-0.104916 v -0.245019 c 0,0 0.04888,-0.01539 0.04888,-0.06516 0,-0.04976 -0.06256,-0.04301 -0.06256,-0.04301 v -0.14206 h -0.04822 v 0.132285 c 0,0 -0.03975,0.03055 -0.03975,0.06581 0,0.03527 0.0404,0.0404 0.0404,0.0404 v 0.252188 c 0,0 -0.05083,0.06422 -0.05083,0.125116 0,0.06091 0.04822,0.08342 0.04822,0.08342 v 0.04692 c 0,0 -0.02201,0.01192 -0.07234,0.05995 -0.05034,0.04804 -0.03649,0.08797 -0.03649,0.08797 0,0 -0.159059,0.08099 -0.368832,0.290633 -0.209773,0.209648 -0.190933,0.772419 -0.190933,0.772419 0,0 -0.207229,0.04729 -0.206572,0.07624 6.54e-4,0.02896 0.03128,0.06061 0.03128,0.06061 v 0.250016 l -0.01889,0.01108 0.01238,0.04627 v 0.185067 c 0,0 -0.142733,0.104339 -0.14206,0.157047 6.71e-4,0.05271 0.04301,0.08276 0.04301,0.08276 l 0.08862,0.06256 v 0.07234 l -0.02281,0.04301 0.02607,0.102309 -0.03584,0.01824 0.05278,0.168776 -0.03193,0.02607 v 1.003537 h 7.4633135 v -1.084341 l 0.044311,-0.08146 -0.057345,-0.03715 0.02868,-0.100354 -0.02476,-0.01824 0.0091,-0.119903 0.1446659,-0.09515 v -0.03519 l -0.1492269,-0.155744 0.0026,-0.16617 -0.03128,-0.03909 -0.0039,-0.365062 c 0,0 0.02216,-0.0094 0.02411,-0.03649 0.0019,-0.02712 -0.1568425,-0.0393 -0.1655185,-0.05017 -0.0197,-0.294829 -0.0537,-0.498481 -0.168125,-0.688001 -0.114438,-0.18952 -0.375112,-0.294281 -0.374698,-0.295848 0,-0.0479 -0.112082,-0.149227 -0.112082,-0.149227 v -0.04496 c 0,0 0.0428,-0.03653 0.0404,-0.101657 -0.0023,-0.06513 -0.06126,-0.102308 -0.06126,-0.102308 v -0.263918 c 0,0 0.03454,-0.01167 0.03454,-0.03323 0,-0.02149 -0.03975,-0.03128 -0.03975,-0.03128 v -0.136194 c 0,0 0.0021,-0.02477 -0.0215,-0.02477 -0.02367,0 -0.02085,0.02346 -0.02085,0.02346 v 0.13424 c 0,0 -0.03454,0.0027 -0.03649,0.02411 -0.002,0.02123 0.02932,0.03845 0.02932,0.03845 v 0.268478 c 0,0 -0.04907,0.04435 -0.05213,0.09515 -0.003,0.05078 0.03649,0.0997 0.03649,0.0997 l 0.002,0.05278 c 0,0 -0.05538,0.03681 -0.08081,0.06907 -0.02541,0.03227 -0.02868,0.08472 -0.02868,0.08472 0,0 -0.142816,0.06958 -0.282816,0.208527 -0.139998,0.138943 -0.240785,0.529031 -0.239805,0.570052 9.77e-4,0.04101 0.03715,0.108825 0.03715,0.108825 l -0.02542,0.09319 -0.194191,0.05148 0.05539,0.05539 v 0.277089 l -0.09579,0.02542 -0.08211,-0.02346 -0.0215,-0.990503 0.07428,-0.159654 -0.06908,-0.0039 -0.01889,-0.342766 c 0,0 0.204617,-0.133682 0.204617,-0.170732 0,-0.03705 -0.05596,-0.03144 -0.128374,-0.04888 -0.07242,-0.01745 -0.08862,-0.06061 -0.08862,-0.06061 v -0.420312 c 0,0 0.03323,-0.03294 0.03323,-0.06647 0,-0.03355 -0.109476,-0.08471 -0.109476,-0.08471 0,0 -0.05752,-0.746292 -0.433345,-1.15537 -0.375834,-0.40908 -0.939023,-0.551945 -0.939023,-0.551945 v -0.02672 c 0,0 0.02736,-0.01934 0.02736,-0.05409 0,-0.03474 -0.10339,-0.13426 -0.14662,-0.220908 -0.04324,-0.08664 -0.02997,-0.214391 -0.02997,-0.214391 0,0 0.02085,-0.02525 0.02085,-0.05995 0,-0.03472 -0.102484,-0.105136 -0.131632,-0.153136 -0.02917,-0.04799 -0.05018,-0.09758 -0.05018,-0.197449 0,-0.09986 0.147924,-0.126798 0.147924,-0.246323 0,-0.119519 -0.152485,-0.200056 -0.152485,-0.200056 v -0.302365 c 0,0 0.08407,-0.02908 0.08407,-0.09123 0,-0.0715 -0.09188,-0.08211 -0.09188,-0.08211 v -0.103612 c 0,0 0.02542,-0.0034 0.02542,-0.02867 0,-0.03591 -0.0043,-0.0628 -0.06128,-0.06446 z" />
  </g>
</svg>
